<svg width="512" height="512" viewBox="0 0 512 512" fill="none" xmlns="http://www.w3.org/2000/svg">
<path d="M512 256C512 114.615 397.385 0 256 0C114.615 0 0 114.615 0 256C0 397.385 114.615 512 256 512C397.385 512 512 397.385 512 256Z" fill="#185B34"/>
<path d="M401.566 111.471C399.356 108.913 395.869 107.75 392.032 108.565L118.14 182.051C114.943 183.04 112.501 185.54 111.629 188.796C110.815 191.993 111.803 195.423 114.129 197.749L153.431 237.05L95.3499 252.69C92.1523 253.62 89.7107 256.178 88.8967 259.434C88.0827 262.631 89.071 266.062 91.3966 268.387L243.72 420.594C245.522 422.396 247.964 423.384 250.405 423.384C251.162 423.384 251.975 423.268 252.731 423.094C255.929 422.28 258.487 419.78 259.533 416.349L274.94 358.56L314.474 398.153C316.276 399.896 318.66 400.885 321.102 400.885C321.858 400.885 322.672 400.769 323.427 400.595C326.684 399.78 329.184 397.338 330.23 393.908L403.543 120.192C404.414 117.169 403.659 113.855 401.566 111.471ZM247.207 402.048L109.943 264.899L166.163 249.783L262.208 345.827L247.207 402.048ZM317.963 379.548L279.591 341.177L315.113 208.562C316.16 205.249 315.231 201.644 312.789 199.202C310.347 196.76 306.8 195.83 303.66 196.76L170.814 232.4L132.675 194.261L385.752 126.355L317.963 379.548Z" fill="#F7DD43"/>
</svg>
